<svg id="svg" xmlns="http://www.w3.org/2000/svg" xmlns:xlink="http://www.w3.org/1999/xlink" width="400" height="136.23838513297022" viewBox="0, 0, 400,136.23838513297022"><g id="svgg"><path id="path0" d="M250.822 12.179 C 250.370 12.662,249.062 14.564,248.950 14.899 C 248.881 15.106,247.204 15.050,243.667 14.721 C 239.395 14.325,224.115 14.327,219.333 14.725 C 213.554 15.206,210.948 15.515,204.917 16.432 C 202.534 16.794,198.699 17.512,196.583 17.992 C 195.850 18.159,194.688 18.420,194.000 18.573 C 191.309 19.172,186.274 20.540,183.833 21.336 C 183.329 21.500,182.017 21.919,180.917 22.266 C 179.817 22.613,178.729 22.995,178.500 23.114 C 178.271 23.234,177.971 23.332,177.833 23.333 C 177.696 23.334,177.369 23.447,177.106 23.584 C 176.843 23.721,176.492 23.833,176.324 23.833 C 176.157 23.833,175.978 23.900,175.928 23.982 C 175.878 24.063,175.630 24.181,175.377 24.244 C 175.124 24.307,174.692 24.460,174.417 24.583 C 173.151 25.148,172.278 25.500,172.141 25.500 C 172.058 25.500,171.411 25.765,170.704 26.090 C 169.996 26.414,169.192 26.777,168.917 26.895 C 167.298 27.592,163.736 29.264,163.167 29.594 C 162.938 29.728,162.112 30.151,161.333 30.536 C 160.554 30.921,159.818 31.333,159.696 31.451 C 159.575 31.570,159.374 31.667,159.250 31.667 C 159.126 31.667,158.925 31.760,158.804 31.875 C 158.682 31.990,158.246 32.257,157.833 32.470 C 156.078 33.374,149.993 37.245,149.861 37.542 C 149.831 37.610,149.734 37.667,149.646 37.667 C 149.558 37.667,149.395 37.741,149.285 37.831 C 148.328 38.611,148.010 38.833,147.851 38.833 C 147.750 38.833,147.667 38.901,147.667 38.983 C 147.667 39.065,147.292 39.373,146.833 39.667 C 146.375 39.961,146.000 40.269,146.000 40.351 C 146.000 40.433,145.885 40.500,145.745 40.500 C 145.604 40.500,145.446 40.612,145.394 40.750 C 145.341 40.888,145.193 41.000,145.066 41.000 C 144.938 41.000,144.833 41.062,144.833 41.138 C 144.833 41.215,144.515 41.508,144.125 41.790 C 143.735 42.072,143.180 42.516,142.891 42.776 C 142.602 43.037,141.889 43.661,141.308 44.164 C 139.912 45.369,135.489 49.784,134.239 51.219 C 133.695 51.843,133.100 52.521,132.917 52.725 C 132.733 52.929,132.021 53.843,131.333 54.756 C 130.646 55.669,130.027 56.442,129.958 56.472 C 129.890 56.503,129.833 56.628,129.833 56.750 C 129.833 56.872,129.774 56.997,129.702 57.028 C 129.573 57.083,127.171 60.682,126.941 61.167 C 126.876 61.304,126.528 61.942,126.169 62.583 C 124.676 65.250,123.167 68.531,123.167 69.109 C 123.167 71.409,126.944 72.222,128.263 70.205 C 130.633 66.583,136.151 63.824,141.090 63.792 C 145.856 63.761,151.593 66.657,154.000 70.308 C 154.905 71.681,157.406 71.687,158.333 70.319 C 161.419 65.764,167.943 63.087,173.750 63.992 C 175.905 64.328,178.866 65.530,180.417 66.699 C 181.706 67.671,182.829 68.715,183.538 69.599 C 185.436 71.968,188.415 72.133,190.158 69.965 C 196.838 61.658,209.138 61.794,215.642 70.246 C 216.358 71.176,216.766 71.331,218.503 71.332 C 220.413 71.334,220.831 71.146,221.849 69.833 C 222.719 68.711,223.174 68.250,224.250 67.405 C 224.708 67.045,225.121 66.712,225.167 66.667 C 225.475 66.358,227.876 65.157,229.167 64.666 C 230.843 64.028,233.774 63.644,235.511 63.835 C 237.660 64.070,238.854 63.302,238.825 61.700 C 238.796 60.030,237.787 59.435,234.855 59.358 C 229.038 59.205,223.384 61.507,219.474 65.617 L 218.532 66.608 217.627 65.679 C 210.711 58.582,200.879 57.325,191.913 62.393 C 190.932 62.948,189.921 63.765,188.294 65.321 L 187.000 66.558 185.625 65.237 C 184.869 64.511,184.225 63.860,184.194 63.792 C 184.164 63.723,184.033 63.667,183.903 63.667 C 183.773 63.667,183.667 63.589,183.667 63.495 C 183.667 63.400,183.535 63.276,183.375 63.219 C 183.215 63.163,182.952 63.003,182.791 62.864 C 182.420 62.546,181.878 62.230,181.292 61.989 C 181.040 61.885,180.833 61.733,180.833 61.650 C 180.833 61.568,180.754 61.500,180.658 61.500 C 180.561 61.500,180.167 61.363,179.783 61.196 C 177.700 60.291,176.747 59.999,174.538 59.589 C 170.585 58.855,163.601 60.029,161.487 61.782 C 161.342 61.902,161.152 62.000,161.064 62.000 C 160.845 62.000,158.543 63.603,157.856 64.235 C 157.547 64.518,157.041 65.005,156.731 65.317 L 156.167 65.884 155.603 65.317 C 153.614 63.316,151.827 62.156,148.460 60.680 C 148.026 60.489,147.578 60.333,147.466 60.333 C 147.353 60.333,146.959 60.228,146.589 60.099 C 143.256 58.938,136.755 59.222,133.750 60.659 C 133.567 60.747,133.131 60.932,132.781 61.072 L 132.145 61.325 132.656 60.680 C 132.937 60.326,133.167 59.989,133.167 59.933 C 133.167 59.801,136.249 55.751,136.667 55.333 C 136.712 55.288,137.198 54.725,137.746 54.083 C 139.046 52.560,142.913 48.699,144.498 47.341 C 145.184 46.753,145.897 46.132,146.081 45.959 C 146.266 45.787,146.923 45.261,147.542 44.790 C 148.160 44.320,148.667 43.874,148.667 43.801 C 148.667 43.727,148.745 43.667,148.840 43.667 C 148.936 43.667,149.105 43.591,149.215 43.499 C 150.292 42.604,152.198 41.241,153.984 40.090 C 154.405 39.819,154.775 39.538,154.806 39.465 C 154.836 39.393,154.953 39.333,155.066 39.333 C 155.178 39.333,155.416 39.202,155.595 39.042 C 155.773 38.881,156.256 38.568,156.668 38.346 C 157.080 38.123,157.454 37.898,157.500 37.846 C 157.546 37.793,157.921 37.570,158.333 37.350 C 158.746 37.130,159.202 36.849,159.346 36.725 C 159.491 36.601,159.692 36.500,159.793 36.500 C 159.894 36.500,160.077 36.406,160.201 36.292 C 160.523 35.992,161.932 35.252,166.000 33.245 C 169.824 31.357,170.127 31.213,171.417 30.668 C 172.713 30.119,172.867 30.052,173.667 29.691 C 174.079 29.505,174.624 29.303,174.877 29.241 C 175.130 29.180,175.378 29.063,175.428 28.982 C 175.478 28.900,175.629 28.833,175.762 28.833 C 175.895 28.833,176.322 28.691,176.710 28.517 C 177.099 28.343,177.567 28.161,177.750 28.114 C 177.933 28.067,178.496 27.865,179.000 27.666 C 179.504 27.467,180.142 27.240,180.417 27.162 C 180.692 27.084,181.554 26.796,182.333 26.523 C 185.011 25.585,188.962 24.430,192.667 23.502 C 195.858 22.703,195.828 22.710,199.708 21.921 C 200.870 21.685,202.070 21.454,203.667 21.160 C 220.678 18.024,241.858 18.029,259.843 21.171 C 262.295 21.600,263.496 20.948,263.499 19.186 C 263.501 17.730,262.632 17.023,260.500 16.745 C 260.087 16.691,259.112 16.541,258.333 16.410 C 257.554 16.280,256.272 16.086,255.485 15.980 L 254.052 15.788 253.767 14.602 C 253.237 12.397,253.158 12.179,252.791 11.923 C 252.175 11.491,251.366 11.596,250.822 12.179 M15.000 80.250 L 15.000 85.167 16.333 85.167 L 17.667 85.167 17.667 98.333 L 17.667 111.500 16.333 111.500 L 15.000 111.500 15.000 116.417 L 15.000 121.333 24.500 121.333 L 34.000 121.333 34.000 116.417 L 34.000 111.500 32.740 111.500 L 31.480 111.500 31.531 105.958 C 31.598 98.846,31.766 98.451,34.713 98.451 C 37.706 98.451,37.902 98.903,37.969 105.958 L 38.020 111.500 36.760 111.500 L 35.500 111.500 35.500 116.417 L 35.500 121.333 44.917 121.333 L 54.333 121.333 54.333 116.417 L 54.333 111.500 53.104 111.500 L 51.874 111.500 51.798 104.792 C 51.709 96.938,51.193 93.868,49.635 91.917 C 48.647 90.679,48.276 90.265,47.806 89.879 C 47.500 89.628,47.212 89.382,47.167 89.333 C 45.648 87.720,39.308 87.141,36.858 88.393 C 36.615 88.517,35.967 88.836,35.418 89.101 C 34.457 89.566,32.648 90.961,31.880 91.831 L 31.511 92.250 31.505 83.792 L 31.500 75.333 23.250 75.333 L 15.000 75.333 15.000 80.250 M128.778 75.444 C 128.717 75.506,128.667 77.718,128.667 80.361 L 128.667 85.167 130.083 85.167 L 131.500 85.167 131.500 98.333 L 131.500 111.500 130.083 111.500 L 128.667 111.500 128.667 116.417 L 128.667 121.333 138.250 121.333 L 147.833 121.333 147.833 116.417 L 147.833 111.500 146.500 111.500 L 145.167 111.500 145.167 93.417 L 145.167 75.333 137.028 75.333 C 132.551 75.333,128.839 75.383,128.778 75.444 M175.500 80.248 L 175.500 85.167 176.833 85.167 L 178.167 85.167 178.167 98.333 L 178.167 111.500 176.833 111.500 L 175.500 111.500 175.500 116.417 L 175.500 121.333 185.000 121.333 L 194.500 121.333 194.500 116.417 L 194.500 111.500 193.250 111.500 L 192.000 111.500 192.000 105.993 C 192.000 98.856,192.171 98.452,195.185 98.465 C 198.184 98.478,198.500 99.255,198.500 106.611 L 198.500 111.500 197.167 111.500 L 195.833 111.500 195.833 116.417 L 195.833 121.333 205.333 121.333 L 214.833 121.333 214.833 116.417 L 214.833 111.500 213.583 111.500 L 212.333 111.500 212.333 107.003 C 212.333 100.184,211.964 96.169,211.161 94.250 C 211.084 94.067,210.874 93.567,210.693 93.139 C 208.625 88.243,202.227 86.222,196.667 88.708 C 195.195 89.366,194.167 89.973,194.167 90.183 C 194.167 90.266,194.100 90.333,194.019 90.333 C 193.938 90.333,193.469 90.711,192.977 91.173 L 192.083 92.012 192.000 83.714 L 191.917 75.417 183.708 75.373 L 175.500 75.330 175.500 80.248 M152.823 83.042 C 152.800 86.658,152.004 87.879,149.338 88.385 L 148.333 88.576 148.333 93.455 L 148.333 98.333 149.667 98.333 L 151.000 98.333 151.000 105.057 C 151.000 112.084,151.111 113.392,151.892 115.593 C 152.190 116.431,152.862 117.733,153.034 117.806 C 153.107 117.836,153.167 117.958,153.167 118.076 C 153.167 118.296,154.588 119.742,155.335 120.282 C 158.753 122.750,165.730 122.972,172.750 120.835 L 173.750 120.530 173.794 115.745 L 173.839 110.960 173.461 111.068 C 173.253 111.128,172.183 111.260,171.083 111.363 C 165.824 111.853,165.500 111.381,165.500 103.222 L 165.500 98.333 169.500 98.333 L 173.500 98.333 173.500 93.417 L 173.500 88.500 169.500 88.500 L 165.500 88.500 165.500 85.000 L 165.500 81.500 159.167 81.500 L 152.833 81.500 152.823 83.042 M69.070 87.919 C 66.046 88.331,63.215 89.451,60.983 91.118 C 55.685 95.074,53.494 105.424,56.437 112.583 C 56.898 113.703,57.903 115.667,58.016 115.667 C 58.075 115.667,58.309 115.948,58.537 116.292 C 62.421 122.141,73.515 123.999,84.500 120.640 C 85.371 120.373,86.477 119.965,86.958 119.732 L 87.833 119.309 87.833 114.468 L 87.833 109.628 87.458 109.722 C 82.383 111.003,81.498 111.173,78.917 111.363 C 72.431 111.842,69.833 110.834,69.833 107.839 L 69.833 107.167 79.333 107.167 L 88.833 107.167 88.833 103.633 C 88.833 91.706,81.875 86.174,69.070 87.919 M104.167 87.765 C 104.029 87.798,102.979 87.897,101.833 87.987 C 100.688 88.076,99.075 88.270,98.250 88.418 C 95.605 88.892,94.109 89.190,93.042 89.456 L 92.000 89.716 92.000 94.953 C 92.000 99.862,92.018 100.184,92.292 100.102 C 93.222 99.825,97.088 99.115,99.667 98.748 C 102.736 98.312,108.176 98.353,109.205 98.821 C 110.125 99.239,110.809 100.056,110.946 100.901 L 111.044 101.500 110.063 101.502 C 102.522 101.521,95.674 103.266,92.927 105.869 C 92.657 106.124,92.376 106.333,92.302 106.333 C 92.227 106.333,92.167 106.446,92.167 106.583 C 92.167 106.721,92.091 106.833,91.998 106.833 C 91.767 106.833,90.742 108.464,90.528 109.173 C 90.432 109.490,90.240 110.050,90.101 110.417 C 89.461 112.104,89.816 115.425,90.876 117.667 C 91.887 119.803,94.506 121.427,97.895 122.018 C 100.191 122.418,101.680 122.413,103.635 122.001 C 105.119 121.687,105.465 121.569,107.167 120.795 C 108.187 120.331,109.619 119.281,110.375 118.443 L 110.999 117.750 111.000 119.542 L 111.000 121.333 119.250 121.333 L 127.500 121.333 127.500 116.417 L 127.500 111.500 126.177 111.500 L 124.855 111.500 124.795 105.042 C 124.734 98.387,124.713 98.157,123.952 95.500 C 123.372 93.474,122.076 91.549,120.633 90.571 C 120.239 90.303,119.879 90.041,119.833 89.989 C 119.615 89.739,117.385 88.842,115.924 88.417 C 113.947 87.841,105.754 87.387,104.167 87.765 M74.603 98.591 C 75.467 98.764,76.144 99.895,76.417 101.625 L 76.529 102.333 73.181 102.333 L 69.833 102.333 69.833 101.553 C 69.833 99.121,71.640 98.000,74.603 98.591 M111.000 108.342 C 111.000 109.274,110.451 110.393,109.721 110.950 C 108.350 111.996,104.991 111.505,104.533 110.191 C 104.015 108.704,106.047 107.766,109.958 107.688 L 111.000 107.667 111.000 108.342 " stroke="none" fill="#149c9c" fill-rule="evenodd"></path><path id="path1" d="M230.138 87.932 C 229.251 88.052,228.248 88.267,227.909 88.409 C 227.570 88.551,227.161 88.667,227.001 88.667 C 226.643 88.667,224.413 89.620,223.808 90.032 C 223.564 90.198,223.313 90.333,223.248 90.333 C 222.808 90.333,220.187 92.827,219.307 94.083 C 216.299 98.378,215.457 106.119,217.368 111.914 C 218.073 114.053,219.495 116.401,220.833 117.634 C 221.062 117.846,221.475 118.226,221.750 118.480 C 226.170 122.556,236.724 123.477,245.750 120.573 L 247.417 120.037 247.461 115.258 L 247.505 110.479 246.711 110.583 C 246.274 110.640,244.979 110.828,243.833 111.001 C 241.375 111.371,236.732 111.592,234.938 111.424 C 233.641 111.303,231.833 110.412,231.833 109.895 C 231.833 109.785,231.756 109.669,231.662 109.637 C 231.048 109.433,230.692 102.251,231.214 100.583 C 231.714 98.983,232.464 98.463,234.272 98.463 C 236.564 98.463,237.500 99.463,237.500 101.911 L 237.500 103.167 242.752 103.167 L 248.004 103.167 247.960 97.208 L 247.917 91.250 245.833 90.212 C 244.688 89.642,243.621 89.173,243.464 89.171 C 243.307 89.169,242.932 89.063,242.631 88.936 C 240.021 87.837,234.245 87.372,230.138 87.932 M262.833 87.916 C 256.321 88.868,251.838 92.394,250.011 98.000 C 249.003 101.094,248.715 106.690,249.408 109.750 C 251.228 117.792,256.502 121.790,265.933 122.277 C 270.510 122.514,276.129 121.118,278.451 119.169 C 278.562 119.076,278.700 119.000,278.759 119.000 C 278.962 119.000,280.875 117.077,281.586 116.159 C 285.799 110.712,285.951 100.293,281.907 94.161 C 278.629 89.191,271.062 86.713,262.833 87.916 M336.917 87.918 C 331.353 88.678,327.192 91.385,325.007 95.667 C 324.797 96.079,324.551 96.559,324.462 96.734 C 322.801 99.964,322.547 107.843,323.974 111.833 C 324.576 113.514,324.759 113.960,324.943 114.189 C 325.044 114.314,325.178 114.585,325.241 114.792 C 325.304 114.998,325.426 115.167,325.511 115.167 C 325.597 115.167,325.667 115.253,325.667 115.358 C 325.667 115.773,328.630 119.000,329.012 119.000 C 329.084 119.000,329.244 119.094,329.368 119.208 C 333.077 122.638,346.172 123.300,352.964 120.400 C 353.265 120.272,353.588 120.167,353.683 120.167 C 353.777 120.167,354.262 119.974,354.760 119.738 L 355.667 119.309 355.667 114.488 C 355.667 109.146,355.743 109.460,354.545 109.895 C 351.953 110.837,348.168 111.386,344.167 111.402 L 340.417 111.417 339.667 110.975 C 338.275 110.156,337.681 109.185,337.671 107.708 L 337.667 107.167 347.167 107.167 L 356.667 107.167 356.667 103.958 C 356.667 96.626,354.275 91.528,349.961 89.664 C 349.754 89.574,349.471 89.437,349.333 89.358 C 346.748 87.883,341.569 87.282,336.917 87.918 M380.319 87.907 C 378.255 88.477,376.681 89.697,375.415 91.708 C 374.709 92.830,374.590 92.658,374.536 90.445 L 374.489 88.500 366.328 88.500 L 358.167 88.500 358.167 93.417 L 358.167 98.333 359.500 98.333 L 360.833 98.333 360.833 104.917 L 360.833 111.500 359.500 111.500 L 358.167 111.500 358.167 116.417 L 358.167 121.333 369.083 121.333 L 380.000 121.333 380.000 116.417 L 380.000 111.500 377.232 111.500 L 374.464 111.500 374.550 107.708 C 374.690 101.452,375.460 99.840,378.833 98.743 C 379.991 98.366,384.622 98.354,386.375 98.723 L 387.500 98.959 387.500 93.770 C 387.500 87.741,387.697 88.303,385.444 87.907 C 383.804 87.618,381.367 87.618,380.319 87.907 M285.000 93.409 L 285.000 98.319 286.195 98.368 L 287.390 98.417 287.675 99.333 C 287.832 99.837,288.092 100.737,288.252 101.333 C 288.413 101.929,288.655 102.829,288.790 103.333 C 288.925 103.837,289.172 104.737,289.337 105.333 C 289.642 106.429,289.894 107.362,290.418 109.333 C 290.577 109.929,290.838 110.867,291.000 111.417 C 291.162 111.967,291.419 112.904,291.573 113.500 C 291.880 114.691,292.142 115.649,292.642 117.417 C 293.174 119.301,293.467 120.386,293.573 120.875 L 293.673 121.333 303.837 121.333 C 313.200 121.333,314.000 121.312,314.000 121.056 C 314.000 120.904,314.119 120.360,314.264 119.848 C 314.843 117.801,315.145 116.701,315.413 115.667 C 315.567 115.071,315.795 114.208,315.919 113.750 C 316.043 113.292,316.306 112.317,316.504 111.583 C 316.701 110.850,316.965 109.875,317.089 109.417 C 317.213 108.958,317.436 108.096,317.585 107.500 C 317.734 106.904,318.002 105.929,318.180 105.333 C 318.359 104.737,318.504 104.114,318.502 103.947 C 318.501 103.781,318.577 103.501,318.671 103.325 C 318.765 103.149,318.913 102.685,319.000 102.294 C 319.431 100.344,319.642 99.509,319.845 98.948 L 320.067 98.333 321.283 98.333 L 322.500 98.333 322.500 93.417 L 322.500 88.500 313.750 88.500 L 305.000 88.500 305.000 93.417 L 305.000 98.333 306.263 98.333 L 307.526 98.333 307.422 98.875 C 307.365 99.173,307.202 99.904,307.061 100.500 C 306.920 101.096,306.693 102.071,306.556 102.667 C 306.420 103.263,306.170 104.313,306.000 105.000 C 305.830 105.688,305.570 106.775,305.421 107.417 C 305.272 108.058,305.044 109.033,304.914 109.583 C 304.784 110.133,304.656 110.770,304.630 110.998 C 304.569 111.543,304.000 111.681,304.000 111.152 C 304.000 110.947,303.893 110.398,303.763 109.931 C 303.633 109.465,303.379 108.483,303.198 107.750 C 303.018 107.017,302.777 106.042,302.663 105.583 C 302.549 105.125,302.401 104.450,302.333 104.083 C 302.266 103.717,302.118 103.042,302.005 102.583 C 301.390 100.096,301.175 99.205,301.089 98.792 L 300.994 98.333 302.247 98.333 L 303.500 98.333 303.500 93.417 L 303.500 88.500 294.250 88.500 L 285.000 88.500 285.000 93.409 M268.958 98.947 C 270.055 99.763,270.167 100.317,270.167 104.918 C 270.167 110.715,269.808 111.417,266.846 111.417 C 264.033 111.417,263.500 110.398,263.500 105.017 C 263.500 100.946,263.681 100.041,264.679 99.134 C 265.667 98.235,267.873 98.139,268.958 98.947 M342.805 98.845 C 343.525 99.226,343.950 100.041,344.094 101.313 L 344.210 102.333 340.914 102.333 L 337.618 102.333 337.722 101.224 C 337.826 100.110,338.352 99.004,338.778 99.001 C 338.885 99.001,338.998 98.921,339.031 98.825 C 339.199 98.319,341.839 98.333,342.805 98.845 " stroke="none" fill="#ec1c24" fill-rule="evenodd"></path></g></svg>